<mxfile host="app.diagrams.net" modified="2022-08-13T13:40:13.145Z" agent="5.0 (Macintosh)" etag="dxmsyDEb0j38Tpref8JJ" version="20.2.3" type="github">
  <diagram id="n1hbfpzInVCbSyRnJ_nC" name="Page-1">
    <mxGraphModel dx="1240" dy="713" grid="1" gridSize="10" guides="1" tooltips="1" connect="1" arrows="1" fold="1" page="1" pageScale="1" pageWidth="1169" pageHeight="827" math="0" shadow="0">
      <root>
        <mxCell id="0" />
        <mxCell id="1" parent="0" />
        <mxCell id="tIoOOeGDGCm7ymQ8YAvh-4" value="&lt;font color=&quot;#CC0000&quot;&gt;1F&lt;/font&gt;" style="rounded=1;whiteSpace=wrap;html=1;fontSize=18;opacity=30;fillColor=#7EA6E0;verticalAlign=top" vertex="1" parent="1">
          <mxGeometry x="150" y="83.5" width="980" height="376.5" as="geometry" />
        </mxCell>
        <mxCell id="tIoOOeGDGCm7ymQ8YAvh-15" style="edgeStyle=orthogonalEdgeStyle;curved=1;orthogonalLoop=1;jettySize=auto;html=1;fontSize=18;endArrow=none;endFill=0;strokeWidth=2;" edge="1" parent="1" source="tIoOOeGDGCm7ymQ8YAvh-1" target="tIoOOeGDGCm7ymQ8YAvh-13">
          <mxGeometry relative="1" as="geometry" />
        </mxCell>
        <mxCell id="tIoOOeGDGCm7ymQ8YAvh-16" style="edgeStyle=orthogonalEdgeStyle;curved=1;orthogonalLoop=1;jettySize=auto;html=1;exitX=0;exitY=0.5;exitDx=0;exitDy=0;exitPerimeter=0;entryX=1;entryY=0.5;entryDx=0;entryDy=0;entryPerimeter=0;fontSize=18;endArrow=none;endFill=0;strokeWidth=2;" edge="1" parent="1" source="tIoOOeGDGCm7ymQ8YAvh-1" target="tIoOOeGDGCm7ymQ8YAvh-9">
          <mxGeometry relative="1" as="geometry" />
        </mxCell>
        <mxCell id="tIoOOeGDGCm7ymQ8YAvh-27" style="edgeStyle=orthogonalEdgeStyle;curved=1;orthogonalLoop=1;jettySize=auto;html=1;exitX=1;exitY=0.5;exitDx=0;exitDy=0;exitPerimeter=0;entryX=0;entryY=0.5;entryDx=0;entryDy=0;entryPerimeter=0;fontSize=18;endArrow=none;endFill=0;strokeWidth=4;" edge="1" parent="1" source="tIoOOeGDGCm7ymQ8YAvh-1" target="tIoOOeGDGCm7ymQ8YAvh-12">
          <mxGeometry relative="1" as="geometry" />
        </mxCell>
        <mxCell id="tIoOOeGDGCm7ymQ8YAvh-1" value="" style="shape=mxgraph.cisco.routers.router;sketch=0;html=1;pointerEvents=1;dashed=0;fillColor=#036897;strokeColor=#ffffff;strokeWidth=2;verticalLabelPosition=bottom;verticalAlign=top;align=center;outlineConnect=0;" vertex="1" parent="1">
          <mxGeometry x="440" y="276" width="78" height="53" as="geometry" />
        </mxCell>
        <mxCell id="tIoOOeGDGCm7ymQ8YAvh-10" style="edgeStyle=orthogonalEdgeStyle;curved=1;orthogonalLoop=1;jettySize=auto;html=1;exitX=1;exitY=0.5;exitDx=0;exitDy=0;exitPerimeter=0;fontSize=18;endArrow=none;endFill=0;strokeWidth=2;" edge="1" parent="1" source="tIoOOeGDGCm7ymQ8YAvh-2" target="tIoOOeGDGCm7ymQ8YAvh-9">
          <mxGeometry relative="1" as="geometry" />
        </mxCell>
        <mxCell id="tIoOOeGDGCm7ymQ8YAvh-2" value="" style="shape=mxgraph.cisco.modems_and_phones.modem;sketch=0;html=1;pointerEvents=1;dashed=0;fillColor=#036897;strokeColor=#ffffff;strokeWidth=2;verticalLabelPosition=bottom;verticalAlign=top;align=center;outlineConnect=0;" vertex="1" parent="1">
          <mxGeometry x="210" y="173" width="77" height="27" as="geometry" />
        </mxCell>
        <mxCell id="tIoOOeGDGCm7ymQ8YAvh-3" value="&lt;font style=&quot;font-size: 36px;&quot;&gt;Tsuchiura Network (L2, planned)&lt;/font&gt;" style="text;html=1;resizable=0;autosize=1;align=center;verticalAlign=middle;points=[];fillColor=none;strokeColor=none;rounded=0;" vertex="1" parent="1">
          <mxGeometry x="315" y="20" width="540" height="60" as="geometry" />
        </mxCell>
        <mxCell id="tIoOOeGDGCm7ymQ8YAvh-6" style="edgeStyle=orthogonalEdgeStyle;orthogonalLoop=1;jettySize=auto;html=1;entryX=0;entryY=0.5;entryDx=0;entryDy=0;entryPerimeter=0;fontSize=18;endArrow=none;endFill=0;strokeWidth=2;curved=1;exitX=0.875;exitY=0.5;exitDx=0;exitDy=0;exitPerimeter=0;" edge="1" parent="1" source="tIoOOeGDGCm7ymQ8YAvh-5" target="tIoOOeGDGCm7ymQ8YAvh-2">
          <mxGeometry relative="1" as="geometry" />
        </mxCell>
        <mxCell id="tIoOOeGDGCm7ymQ8YAvh-5" value="&lt;div&gt;NTT East&lt;/div&gt;&lt;div&gt;NGN&lt;br&gt;&lt;/div&gt;" style="ellipse;shape=cloud;whiteSpace=wrap;html=1;fontSize=18;fillColor=#FFFFFF;strokeWidth=2;" vertex="1" parent="1">
          <mxGeometry x="20" y="90" width="120" height="100" as="geometry" />
        </mxCell>
        <mxCell id="tIoOOeGDGCm7ymQ8YAvh-7" value="ONU" style="text;html=1;resizable=0;autosize=1;align=center;verticalAlign=middle;points=[];fillColor=none;strokeColor=none;rounded=0;fontSize=18;" vertex="1" parent="1">
          <mxGeometry x="218.5" y="140" width="60" height="40" as="geometry" />
        </mxCell>
        <mxCell id="tIoOOeGDGCm7ymQ8YAvh-14" style="edgeStyle=orthogonalEdgeStyle;curved=1;orthogonalLoop=1;jettySize=auto;html=1;exitX=1;exitY=0.5;exitDx=0;exitDy=0;exitPerimeter=0;entryX=0;entryY=0.5;entryDx=0;entryDy=0;entryPerimeter=0;fontSize=18;endArrow=none;endFill=0;strokeWidth=2;" edge="1" parent="1" source="tIoOOeGDGCm7ymQ8YAvh-8" target="tIoOOeGDGCm7ymQ8YAvh-13">
          <mxGeometry relative="1" as="geometry" />
        </mxCell>
        <mxCell id="tIoOOeGDGCm7ymQ8YAvh-8" value="" style="shape=mxgraph.cisco.routers.ip_telephony_router;sketch=0;html=1;pointerEvents=1;dashed=0;fillColor=#036897;strokeColor=#ffffff;strokeWidth=2;verticalLabelPosition=bottom;verticalAlign=top;align=center;outlineConnect=0;fontSize=18;" vertex="1" parent="1">
          <mxGeometry x="340" y="152" width="78" height="69" as="geometry" />
        </mxCell>
        <mxCell id="tIoOOeGDGCm7ymQ8YAvh-11" style="edgeStyle=orthogonalEdgeStyle;curved=1;orthogonalLoop=1;jettySize=auto;html=1;entryX=0;entryY=0.5;entryDx=0;entryDy=0;entryPerimeter=0;fontSize=18;endArrow=none;endFill=0;strokeWidth=2;" edge="1" parent="1" source="tIoOOeGDGCm7ymQ8YAvh-9" target="tIoOOeGDGCm7ymQ8YAvh-8">
          <mxGeometry relative="1" as="geometry" />
        </mxCell>
        <mxCell id="tIoOOeGDGCm7ymQ8YAvh-37" style="edgeStyle=orthogonalEdgeStyle;curved=1;orthogonalLoop=1;jettySize=auto;html=1;exitX=0.5;exitY=1;exitDx=0;exitDy=0;exitPerimeter=0;entryX=0.5;entryY=0.98;entryDx=0;entryDy=0;entryPerimeter=0;fontSize=18;endArrow=none;endFill=0;strokeWidth=2;" edge="1" parent="1" source="tIoOOeGDGCm7ymQ8YAvh-9" target="tIoOOeGDGCm7ymQ8YAvh-12">
          <mxGeometry relative="1" as="geometry">
            <Array as="points">
              <mxPoint x="315" y="450" />
              <mxPoint x="795" y="450" />
            </Array>
          </mxGeometry>
        </mxCell>
        <mxCell id="tIoOOeGDGCm7ymQ8YAvh-9" value="" style="shape=mxgraph.cisco.hubs_and_gateways.100baset_hub;html=1;pointerEvents=1;dashed=0;fillColor=#036897;strokeColor=#ffffff;strokeWidth=2;verticalLabelPosition=bottom;verticalAlign=top;align=center;outlineConnect=0;fontSize=18;" vertex="1" parent="1">
          <mxGeometry x="270" y="280" width="90" height="45" as="geometry" />
        </mxCell>
        <mxCell id="tIoOOeGDGCm7ymQ8YAvh-24" style="edgeStyle=orthogonalEdgeStyle;curved=1;orthogonalLoop=1;jettySize=auto;html=1;exitX=0.5;exitY=0.98;exitDx=0;exitDy=0;exitPerimeter=0;fontSize=18;endArrow=none;endFill=0;strokeWidth=4;" edge="1" parent="1" source="tIoOOeGDGCm7ymQ8YAvh-12" target="tIoOOeGDGCm7ymQ8YAvh-23">
          <mxGeometry relative="1" as="geometry" />
        </mxCell>
        <mxCell id="tIoOOeGDGCm7ymQ8YAvh-48" style="edgeStyle=orthogonalEdgeStyle;curved=1;orthogonalLoop=1;jettySize=auto;html=1;exitX=0.98;exitY=0.5;exitDx=0;exitDy=0;exitPerimeter=0;entryX=0;entryY=0.5;entryDx=0;entryDy=0;entryPerimeter=0;fontSize=18;fontColor=#EA6B66;endArrow=none;endFill=0;strokeWidth=4;" edge="1" parent="1" source="tIoOOeGDGCm7ymQ8YAvh-12" target="tIoOOeGDGCm7ymQ8YAvh-28">
          <mxGeometry relative="1" as="geometry" />
        </mxCell>
        <mxCell id="tIoOOeGDGCm7ymQ8YAvh-12" value="" style="shape=mxgraph.cisco.switches.workgroup_switch;sketch=0;html=1;pointerEvents=1;dashed=0;fillColor=#036897;strokeColor=#ffffff;strokeWidth=2;verticalLabelPosition=bottom;verticalAlign=top;align=center;outlineConnect=0;fontSize=18;" vertex="1" parent="1">
          <mxGeometry x="744" y="277.5" width="101" height="50" as="geometry" />
        </mxCell>
        <mxCell id="tIoOOeGDGCm7ymQ8YAvh-13" value="" style="shape=mxgraph.cisco.hubs_and_gateways.100baset_hub;html=1;pointerEvents=1;dashed=0;fillColor=#036897;strokeColor=#ffffff;strokeWidth=2;verticalLabelPosition=bottom;verticalAlign=top;align=center;outlineConnect=0;fontSize=18;" vertex="1" parent="1">
          <mxGeometry x="480" y="164" width="90" height="45" as="geometry" />
        </mxCell>
        <mxCell id="tIoOOeGDGCm7ymQ8YAvh-18" style="edgeStyle=orthogonalEdgeStyle;curved=1;orthogonalLoop=1;jettySize=auto;html=1;entryX=1;entryY=0.5;entryDx=0;entryDy=0;entryPerimeter=0;fontSize=18;endArrow=none;endFill=0;strokeWidth=2;" edge="1" parent="1" source="tIoOOeGDGCm7ymQ8YAvh-17" target="tIoOOeGDGCm7ymQ8YAvh-13">
          <mxGeometry relative="1" as="geometry" />
        </mxCell>
        <mxCell id="tIoOOeGDGCm7ymQ8YAvh-26" style="edgeStyle=orthogonalEdgeStyle;curved=1;orthogonalLoop=1;jettySize=auto;html=1;exitX=1;exitY=0.5;exitDx=0;exitDy=0;exitPerimeter=0;entryX=0;entryY=0.5;entryDx=0;entryDy=0;entryPerimeter=0;fontSize=18;endArrow=none;endFill=0;strokeWidth=2;" edge="1" parent="1" source="tIoOOeGDGCm7ymQ8YAvh-17" target="tIoOOeGDGCm7ymQ8YAvh-42">
          <mxGeometry relative="1" as="geometry" />
        </mxCell>
        <mxCell id="tIoOOeGDGCm7ymQ8YAvh-17" value="" style="shape=mxgraph.cisco.routers.router;sketch=0;html=1;pointerEvents=1;dashed=0;fillColor=#036897;strokeColor=#ffffff;strokeWidth=2;verticalLabelPosition=bottom;verticalAlign=top;align=center;outlineConnect=0;fontSize=18;" vertex="1" parent="1">
          <mxGeometry x="660" y="160" width="78" height="53" as="geometry" />
        </mxCell>
        <mxCell id="tIoOOeGDGCm7ymQ8YAvh-19" value="paranoia" style="text;html=1;resizable=0;autosize=1;align=center;verticalAlign=middle;points=[];fillColor=none;strokeColor=none;rounded=0;fontSize=18;" vertex="1" parent="1">
          <mxGeometry x="654" y="124" width="90" height="40" as="geometry" />
        </mxCell>
        <mxCell id="tIoOOeGDGCm7ymQ8YAvh-20" value="&lt;div&gt;hikari-hgw&lt;/div&gt;&lt;div&gt;RT-400NE&lt;br&gt;&lt;/div&gt;" style="text;html=1;resizable=0;autosize=1;align=center;verticalAlign=middle;points=[];fillColor=none;strokeColor=none;rounded=0;fontSize=18;" vertex="1" parent="1">
          <mxGeometry x="324" y="92" width="110" height="60" as="geometry" />
        </mxCell>
        <mxCell id="tIoOOeGDGCm7ymQ8YAvh-21" value="hq1-r1" style="text;html=1;resizable=0;autosize=1;align=center;verticalAlign=middle;points=[];fillColor=none;strokeColor=none;rounded=0;fontSize=18;" vertex="1" parent="1">
          <mxGeometry x="434" y="325" width="80" height="40" as="geometry" />
        </mxCell>
        <mxCell id="tIoOOeGDGCm7ymQ8YAvh-22" value="&lt;font color=&quot;#CC0000&quot;&gt;2F&lt;/font&gt;" style="rounded=1;whiteSpace=wrap;html=1;fontSize=18;opacity=30;fillColor=#7EA6E0;verticalAlign=top" vertex="1" parent="1">
          <mxGeometry x="150" y="470" width="980" height="336.5" as="geometry" />
        </mxCell>
        <mxCell id="tIoOOeGDGCm7ymQ8YAvh-23" value="" style="shape=mxgraph.cisco.switches.workgroup_switch;sketch=0;html=1;pointerEvents=1;dashed=0;fillColor=#036897;strokeColor=#ffffff;strokeWidth=2;verticalLabelPosition=bottom;verticalAlign=top;align=center;outlineConnect=0;fontSize=18;" vertex="1" parent="1">
          <mxGeometry x="744" y="550" width="101" height="50" as="geometry" />
        </mxCell>
        <mxCell id="tIoOOeGDGCm7ymQ8YAvh-25" value="&lt;div&gt;VLAN&lt;/div&gt;&lt;div&gt;Trunk&lt;/div&gt;" style="text;html=1;resizable=0;autosize=1;align=center;verticalAlign=middle;points=[];fillColor=none;strokeColor=none;rounded=0;fontSize=18;" vertex="1" parent="1">
          <mxGeometry x="790" y="400" width="70" height="60" as="geometry" />
        </mxCell>
        <mxCell id="tIoOOeGDGCm7ymQ8YAvh-28" value="" style="sketch=0;aspect=fixed;pointerEvents=1;shadow=0;dashed=0;html=1;strokeColor=none;labelPosition=center;verticalLabelPosition=bottom;verticalAlign=top;align=center;fillColor=#00188D;shape=mxgraph.mscae.enterprise.server_farm;fontSize=18;" vertex="1" parent="1">
          <mxGeometry x="903.8100000000001" y="370" width="84.38" height="54" as="geometry" />
        </mxCell>
        <mxCell id="tIoOOeGDGCm7ymQ8YAvh-29" value="trauma" style="text;html=1;resizable=0;autosize=1;align=center;verticalAlign=middle;points=[];fillColor=none;strokeColor=none;rounded=0;fontSize=18;" vertex="1" parent="1">
          <mxGeometry x="906" y="340" width="80" height="40" as="geometry" />
        </mxCell>
        <mxCell id="tIoOOeGDGCm7ymQ8YAvh-47" style="edgeStyle=orthogonalEdgeStyle;curved=1;orthogonalLoop=1;jettySize=auto;html=1;entryX=0.964;entryY=0.933;entryDx=0;entryDy=0;entryPerimeter=0;fontSize=18;endArrow=none;endFill=0;strokeWidth=2;" edge="1" parent="1" source="tIoOOeGDGCm7ymQ8YAvh-31" target="tIoOOeGDGCm7ymQ8YAvh-43">
          <mxGeometry relative="1" as="geometry">
            <Array as="points">
              <mxPoint x="760" y="160" />
              <mxPoint x="760" y="120" />
              <mxPoint x="540" y="120" />
            </Array>
          </mxGeometry>
        </mxCell>
        <mxCell id="tIoOOeGDGCm7ymQ8YAvh-31" value="" style="sketch=0;pointerEvents=1;shadow=0;dashed=0;html=1;strokeColor=none;fillColor=#505050;labelPosition=center;verticalLabelPosition=bottom;verticalAlign=top;outlineConnect=0;align=center;shape=mxgraph.office.devices.tv;fontSize=18;" vertex="1" parent="1">
          <mxGeometry x="801" y="128" width="59" height="45" as="geometry" />
        </mxCell>
        <mxCell id="tIoOOeGDGCm7ymQ8YAvh-33" value="Hikari TV" style="text;html=1;resizable=0;autosize=1;align=center;verticalAlign=middle;points=[];fillColor=none;strokeColor=none;rounded=0;fontSize=18;" vertex="1" parent="1">
          <mxGeometry x="780.5" y="100" width="100" height="40" as="geometry" />
        </mxCell>
        <mxCell id="tIoOOeGDGCm7ymQ8YAvh-52" style="edgeStyle=orthogonalEdgeStyle;curved=1;orthogonalLoop=1;jettySize=auto;html=1;exitX=0.16;exitY=0.5;exitDx=0;exitDy=0;exitPerimeter=0;entryX=1;entryY=0.5;entryDx=0;entryDy=0;entryPerimeter=0;fontSize=18;fontColor=#EA6B66;endArrow=none;endFill=0;strokeWidth=2;" edge="1" parent="1" source="tIoOOeGDGCm7ymQ8YAvh-34" target="tIoOOeGDGCm7ymQ8YAvh-42">
          <mxGeometry relative="1" as="geometry" />
        </mxCell>
        <mxCell id="tIoOOeGDGCm7ymQ8YAvh-34" value="" style="shape=mxgraph.cisco.computers_and_peripherals.pc;html=1;pointerEvents=1;dashed=0;fillColor=#036897;strokeColor=#ffffff;strokeWidth=2;verticalLabelPosition=bottom;verticalAlign=top;align=center;outlineConnect=0;fontSize=18;" vertex="1" parent="1">
          <mxGeometry x="1034" y="130" width="78" height="70" as="geometry" />
        </mxCell>
        <mxCell id="tIoOOeGDGCm7ymQ8YAvh-36" value="morimini" style="text;html=1;resizable=0;autosize=1;align=center;verticalAlign=middle;points=[];fillColor=none;strokeColor=none;rounded=0;fontSize=18;" vertex="1" parent="1">
          <mxGeometry x="1028" y="100" width="90" height="40" as="geometry" />
        </mxCell>
        <mxCell id="tIoOOeGDGCm7ymQ8YAvh-57" style="edgeStyle=orthogonalEdgeStyle;curved=1;orthogonalLoop=1;jettySize=auto;html=1;exitX=0.83;exitY=0.5;exitDx=0;exitDy=0;exitPerimeter=0;entryX=0;entryY=0.5;entryDx=0;entryDy=0;entryPerimeter=0;fontSize=18;fontColor=#000000;endArrow=none;endFill=0;strokeWidth=2;" edge="1" parent="1" source="tIoOOeGDGCm7ymQ8YAvh-38" target="tIoOOeGDGCm7ymQ8YAvh-23">
          <mxGeometry relative="1" as="geometry" />
        </mxCell>
        <mxCell id="tIoOOeGDGCm7ymQ8YAvh-38" value="" style="shape=mxgraph.cisco.computers_and_peripherals.pc;html=1;pointerEvents=1;dashed=0;fillColor=#036897;strokeColor=#ffffff;strokeWidth=2;verticalLabelPosition=bottom;verticalAlign=top;align=center;outlineConnect=0;fontSize=18;" vertex="1" parent="1">
          <mxGeometry x="601" y="540" width="78" height="70" as="geometry" />
        </mxCell>
        <mxCell id="tIoOOeGDGCm7ymQ8YAvh-46" style="edgeStyle=orthogonalEdgeStyle;curved=1;orthogonalLoop=1;jettySize=auto;html=1;exitX=0;exitY=0.67;exitDx=0;exitDy=0;exitPerimeter=0;fontSize=18;endArrow=none;endFill=0;strokeWidth=2;" edge="1" parent="1" source="tIoOOeGDGCm7ymQ8YAvh-39" target="tIoOOeGDGCm7ymQ8YAvh-42">
          <mxGeometry relative="1" as="geometry" />
        </mxCell>
        <mxCell id="tIoOOeGDGCm7ymQ8YAvh-39" value="" style="points=[[0.03,0.36,0],[0.18,0,0],[0.5,0.34,0],[0.82,0,0],[0.97,0.36,0],[1,0.67,0],[0.975,0.975,0],[0.5,1,0],[0.025,0.975,0],[0,0.67,0]];verticalLabelPosition=bottom;sketch=0;html=1;verticalAlign=top;aspect=fixed;align=center;pointerEvents=1;shape=mxgraph.cisco19.wireless_access_point;fillColor=#005073;strokeColor=none;fontSize=18;" vertex="1" parent="1">
          <mxGeometry x="1028" y="231.25" width="81" height="81" as="geometry" />
        </mxCell>
        <mxCell id="tIoOOeGDGCm7ymQ8YAvh-41" value="Wi-Fi AP (1F)" style="text;html=1;resizable=0;autosize=1;align=center;verticalAlign=middle;points=[];fillColor=none;strokeColor=none;rounded=0;fontSize=18;" vertex="1" parent="1">
          <mxGeometry x="1003.5" y="312.25" width="130" height="40" as="geometry" />
        </mxCell>
        <mxCell id="tIoOOeGDGCm7ymQ8YAvh-50" style="edgeStyle=orthogonalEdgeStyle;curved=1;orthogonalLoop=1;jettySize=auto;html=1;exitX=0;exitY=0.5;exitDx=0;exitDy=0;exitPerimeter=0;entryX=0.5;entryY=0;entryDx=0;entryDy=0;entryPerimeter=0;fontSize=18;fontColor=#EA6B66;endArrow=none;endFill=0;strokeWidth=2;" edge="1" parent="1" source="tIoOOeGDGCm7ymQ8YAvh-42" target="tIoOOeGDGCm7ymQ8YAvh-12">
          <mxGeometry relative="1" as="geometry" />
        </mxCell>
        <mxCell id="tIoOOeGDGCm7ymQ8YAvh-42" value="" style="shape=mxgraph.cisco.hubs_and_gateways.100baset_hub;sketch=0;html=1;pointerEvents=1;dashed=0;fillColor=#036897;strokeColor=#ffffff;strokeWidth=2;verticalLabelPosition=bottom;verticalAlign=top;align=center;outlineConnect=0;fontSize=18;" vertex="1" parent="1">
          <mxGeometry x="860" y="209" width="90" height="45" as="geometry" />
        </mxCell>
        <mxCell id="tIoOOeGDGCm7ymQ8YAvh-43" value="&lt;div&gt;hikari-hgw&lt;/div&gt;&lt;div&gt;hub&lt;/div&gt;" style="text;html=1;resizable=0;autosize=1;align=center;verticalAlign=middle;points=[];fillColor=none;strokeColor=none;rounded=0;fontSize=18;" vertex="1" parent="1">
          <mxGeometry x="434" y="114" width="110" height="60" as="geometry" />
        </mxCell>
        <mxCell id="tIoOOeGDGCm7ymQ8YAvh-44" value="NGN hub" style="text;html=1;resizable=0;autosize=1;align=center;verticalAlign=middle;points=[];fillColor=none;strokeColor=none;rounded=0;fontSize=18;" vertex="1" parent="1">
          <mxGeometry x="170" y="285" width="100" height="40" as="geometry" />
        </mxCell>
        <mxCell id="tIoOOeGDGCm7ymQ8YAvh-58" style="edgeStyle=orthogonalEdgeStyle;curved=1;orthogonalLoop=1;jettySize=auto;html=1;exitX=0;exitY=0.67;exitDx=0;exitDy=0;exitPerimeter=0;entryX=0.98;entryY=0.5;entryDx=0;entryDy=0;entryPerimeter=0;fontSize=18;fontColor=#000000;endArrow=none;endFill=0;strokeWidth=2;" edge="1" parent="1" source="tIoOOeGDGCm7ymQ8YAvh-53" target="tIoOOeGDGCm7ymQ8YAvh-23">
          <mxGeometry relative="1" as="geometry" />
        </mxCell>
        <mxCell id="tIoOOeGDGCm7ymQ8YAvh-53" value="" style="points=[[0.03,0.36,0],[0.18,0,0],[0.5,0.34,0],[0.82,0,0],[0.97,0.36,0],[1,0.67,0],[0.975,0.975,0],[0.5,1,0],[0.025,0.975,0],[0,0.67,0]];verticalLabelPosition=bottom;sketch=0;html=1;verticalAlign=top;aspect=fixed;align=center;pointerEvents=1;shape=mxgraph.cisco19.wireless_access_point;fillColor=#005073;strokeColor=none;fontSize=18;" vertex="1" parent="1">
          <mxGeometry x="922.5" y="534.5" width="81" height="81" as="geometry" />
        </mxCell>
        <mxCell id="tIoOOeGDGCm7ymQ8YAvh-54" value="Wi-Fi AP (2F)" style="text;html=1;resizable=0;autosize=1;align=center;verticalAlign=middle;points=[];fillColor=none;strokeColor=none;rounded=0;fontSize=18;" vertex="1" parent="1">
          <mxGeometry x="903.81" y="618.25" width="130" height="40" as="geometry" />
        </mxCell>
        <mxCell id="tIoOOeGDGCm7ymQ8YAvh-56" value="menheramini" style="text;html=1;resizable=0;autosize=1;align=center;verticalAlign=middle;points=[];fillColor=none;strokeColor=none;rounded=0;fontSize=18;fontColor=#000000;" vertex="1" parent="1">
          <mxGeometry x="575" y="610" width="130" height="40" as="geometry" />
        </mxCell>
        <mxCell id="tIoOOeGDGCm7ymQ8YAvh-61" style="edgeStyle=orthogonalEdgeStyle;curved=1;orthogonalLoop=1;jettySize=auto;html=1;entryX=0.5;entryY=0.98;entryDx=0;entryDy=0;entryPerimeter=0;fontSize=18;fontColor=#000000;endArrow=none;endFill=0;strokeWidth=4;" edge="1" parent="1" source="tIoOOeGDGCm7ymQ8YAvh-59" target="tIoOOeGDGCm7ymQ8YAvh-23">
          <mxGeometry relative="1" as="geometry" />
        </mxCell>
        <mxCell id="tIoOOeGDGCm7ymQ8YAvh-59" value="" style="sketch=0;aspect=fixed;pointerEvents=1;shadow=0;dashed=0;html=1;strokeColor=none;labelPosition=center;verticalLabelPosition=bottom;verticalAlign=top;align=center;fillColor=#00188D;shape=mxgraph.mscae.enterprise.web_server;fontSize=18;fontColor=#000000;" vertex="1" parent="1">
          <mxGeometry x="771.7" y="680" width="45.6" height="60" as="geometry" />
        </mxCell>
        <mxCell id="tIoOOeGDGCm7ymQ8YAvh-60" value="server (planned)" style="text;html=1;resizable=0;autosize=1;align=center;verticalAlign=middle;points=[];fillColor=none;strokeColor=none;rounded=0;fontSize=18;fontColor=#000000;" vertex="1" parent="1">
          <mxGeometry x="719.5" y="740" width="150" height="40" as="geometry" />
        </mxCell>
        <mxCell id="tIoOOeGDGCm7ymQ8YAvh-65" style="edgeStyle=orthogonalEdgeStyle;curved=1;orthogonalLoop=1;jettySize=auto;html=1;exitX=0.83;exitY=0.5;exitDx=0;exitDy=0;exitPerimeter=0;entryX=0;entryY=0.5;entryDx=0;entryDy=0;entryPerimeter=0;fontSize=18;fontColor=#000000;endArrow=none;endFill=0;strokeWidth=2;" edge="1" parent="1" source="tIoOOeGDGCm7ymQ8YAvh-62" target="tIoOOeGDGCm7ymQ8YAvh-23">
          <mxGeometry relative="1" as="geometry" />
        </mxCell>
        <mxCell id="tIoOOeGDGCm7ymQ8YAvh-62" value="" style="shape=mxgraph.cisco.computers_and_peripherals.pc;html=1;pointerEvents=1;dashed=0;fillColor=#036897;strokeColor=#ffffff;strokeWidth=2;verticalLabelPosition=bottom;verticalAlign=top;align=center;outlineConnect=0;fontSize=18;" vertex="1" parent="1">
          <mxGeometry x="601" y="670" width="78" height="70" as="geometry" />
        </mxCell>
        <mxCell id="tIoOOeGDGCm7ymQ8YAvh-64" value="workaholic" style="text;html=1;resizable=0;autosize=1;align=center;verticalAlign=middle;points=[];fillColor=none;strokeColor=none;rounded=0;fontSize=18;fontColor=#000000;" vertex="1" parent="1">
          <mxGeometry x="585" y="730" width="110" height="40" as="geometry" />
        </mxCell>
        <mxCell id="tIoOOeGDGCm7ymQ8YAvh-67" style="edgeStyle=orthogonalEdgeStyle;curved=1;orthogonalLoop=1;jettySize=auto;html=1;entryX=0.98;entryY=0.5;entryDx=0;entryDy=0;entryPerimeter=0;fontSize=18;fontColor=#000000;endArrow=none;endFill=0;strokeWidth=2;exitX=0.055;exitY=0.5;exitDx=0;exitDy=0;exitPerimeter=0;" edge="1" parent="1" source="tIoOOeGDGCm7ymQ8YAvh-66" target="tIoOOeGDGCm7ymQ8YAvh-23">
          <mxGeometry relative="1" as="geometry">
            <Array as="points">
              <mxPoint x="870" y="715" />
              <mxPoint x="870" y="575" />
            </Array>
          </mxGeometry>
        </mxCell>
        <mxCell id="tIoOOeGDGCm7ymQ8YAvh-66" value="" style="shape=mxgraph.cisco.modems_and_phones.ip_phone;html=1;pointerEvents=1;dashed=0;fillColor=#036897;strokeColor=#ffffff;strokeWidth=2;verticalLabelPosition=bottom;verticalAlign=top;align=center;outlineConnect=0;fontSize=18;fontColor=#000000;" vertex="1" parent="1">
          <mxGeometry x="923.81" y="690" width="90" height="50" as="geometry" />
        </mxCell>
        <mxCell id="tIoOOeGDGCm7ymQ8YAvh-69" style="edgeStyle=orthogonalEdgeStyle;curved=1;orthogonalLoop=1;jettySize=auto;html=1;exitX=0.5;exitY=0.975;exitDx=0;exitDy=0;exitPerimeter=0;fontSize=18;fontColor=#000000;endArrow=none;endFill=0;strokeWidth=2;" edge="1" parent="1" source="tIoOOeGDGCm7ymQ8YAvh-68" target="tIoOOeGDGCm7ymQ8YAvh-42">
          <mxGeometry relative="1" as="geometry" />
        </mxCell>
        <mxCell id="tIoOOeGDGCm7ymQ8YAvh-68" value="" style="shape=mxgraph.cisco.modems_and_phones.ip_phone;html=1;pointerEvents=1;dashed=0;fillColor=#036897;strokeColor=#ffffff;strokeWidth=2;verticalLabelPosition=bottom;verticalAlign=top;align=center;outlineConnect=0;fontSize=18;fontColor=#000000;" vertex="1" parent="1">
          <mxGeometry x="922.5" y="102" width="90" height="50" as="geometry" />
        </mxCell>
      </root>
    </mxGraphModel>
  </diagram>
</mxfile>
